<svg xmlns="http://www.w3.org/2000/svg" viewBox="0 0 279.75 104.19"><defs><style>.cls-1{fill:#FFF;}</style></defs><title>cohose-pigneto</title><g id="Layer_2" data-name="Layer 2"><g id="Livello_1" data-name="Livello 1"><g id="sponsors"><g id="cohouse-pigneto"><rect class="cls-1" x="28.21" y="96.76" width="10.93" height="1.83"/><path class="cls-1" d="M62.44,87.49H56.38V104h2.09V97.38h4.3a5,5,0,0,0,5.13-4.87C67.9,88.94,65.17,87.49,62.44,87.49Zm.14,8H58.47v-6h4c1.85,0,3.23,1,3.23,3A3,3,0,0,1,62.58,95.45Z"/><rect class="cls-1" x="84.94" y="87.49" width="2.09" height="16.53"/><path class="cls-1" d="M116.78,98.37v-3.2H111.2v1.9h3.49v1.31a3.89,3.89,0,0,1-3.77,4c-2.57,0-3.83-2.12-3.83-4.3V93.57c0-2.11,1.09-4.18,3.66-4.18a3.61,3.61,0,0,1,3.49,2.36l1.95-.87a5.53,5.53,0,0,0-5.41-3.5c-3.94,0-5.75,2.87-5.75,6.1V98c0,3.3,1.85,6.15,5.87,6.15A5.63,5.63,0,0,0,116.78,98.37Z"/><polygon class="cls-1" points="145.15 100.42 145.07 100.46 142.68 96.49 136.86 87.49 134.79 87.49 134.79 104.02 136.88 104.02 136.88 91.13 136.95 91.1 139.14 94.72 145.17 104.02 147.21 104.02 147.21 87.49 145.15 87.49 145.15 100.42"/><polygon class="cls-1" points="165.74 104.02 176.19 104.02 176.19 102.1 167.83 102.1 167.83 96.59 174.96 96.59 174.96 94.76 167.83 94.76 167.83 89.42 176.19 89.42 176.19 87.49 165.74 87.49 165.74 104.02"/><polygon class="cls-1" points="191.82 89.32 196.53 89.32 196.53 104.02 198.62 104.02 198.62 89.32 203.32 89.32 203.32 87.49 191.82 87.49 191.82 89.32"/><path class="cls-1" d="M224.89,87.37c-3.95,0-5.87,2.88-5.87,6.11V98c0,3.3,1.92,6.13,5.87,6.13,3.58,0,5.88-2.38,5.88-6.13V93.48C230.77,90,228.52,87.37,224.89,87.37Zm3.8,10.54c0,2.45-1.45,4.3-3.78,4.3-2.57,0-3.82-2.12-3.82-4.3V93.52c0-2.12,1.26-4.18,3.82-4.18,2.35,0,3.78,1.88,3.78,4.18Z"/><rect class="cls-1" x="247.41" y="96.76" width="10.92" height="1.83"/><path class="cls-1" d="M5.17,64.7a13.49,13.49,0,0,0,5.07,2.59,21.76,21.76,0,0,0,5.54.75,14.13,14.13,0,0,0,6-1.27,16.1,16.1,0,0,0,4.84-3.39,15.4,15.4,0,0,0,3.24-4.93A15.22,15.22,0,0,0,31,52.54V48.4H21.43v3.29A8.41,8.41,0,0,1,20.86,55,5.5,5.5,0,0,1,19.4,57a5.57,5.57,0,0,1-2,1.08,6.81,6.81,0,0,1-2,.33c-2.19,0-3.71-.65-4.56-2A8.86,8.86,0,0,1,9.58,51.6V17.39a11.82,11.82,0,0,1,1.18-5.59q1.17-2.21,4.74-2.21a5.17,5.17,0,0,1,4.32,2.07,7.74,7.74,0,0,1,1.6,4.88v3.2H31V16a17.28,17.28,0,0,0-1.18-6.44,15.2,15.2,0,0,0-3.24-5.08,14.64,14.64,0,0,0-4.89-3.29A15.8,15.8,0,0,0,15.6,0,16.64,16.64,0,0,0,9.26,1.18,14.84,14.84,0,0,0,4.32,4.42,14.37,14.37,0,0,0,1.13,9.31,16.24,16.24,0,0,0,0,15.42V52.25a17.4,17.4,0,0,0,1.46,7.62A13.92,13.92,0,0,0,5.17,64.7Z"/><path class="cls-1" d="M71.32,58.88a17,17,0,0,0,1.41-7.19V16.36a17,17,0,0,0-1.41-7.14A14.72,14.72,0,0,0,67.61,4.1,16,16,0,0,0,62.44,1,16.68,16.68,0,0,0,50.88,1,16,16,0,0,0,45.71,4.1,14.79,14.79,0,0,0,42,9.22a17.08,17.08,0,0,0-1.41,7.14V51.69A17,17,0,0,0,42,58.88,15.06,15.06,0,0,0,45.71,64,16,16,0,0,0,50.88,67a16.68,16.68,0,0,0,11.56,0A16,16,0,0,0,67.61,64,15,15,0,0,0,71.32,58.88Zm-8.17-7.19c0,2.32-.64,4-1.93,5.13a7.12,7.12,0,0,1-9.11,0c-1.29-1.09-1.93-2.8-1.93-5.13V16.36q0-3.48,1.93-5.12a7.13,7.13,0,0,1,9.11,0q1.93,1.64,1.93,5.12Z"/><polygon class="cls-1" points="104.96 29.23 93.13 29.23 93.13 0.57 83.54 0.57 83.54 67.47 93.13 67.47 93.13 37.69 104.96 37.69 104.96 67.47 114.55 67.47 114.55 0.57 104.96 0.57 104.96 29.23"/><path class="cls-1" d="M152.38,4.1A16,16,0,0,0,147.21,1a16.67,16.67,0,0,0-11.56,0,15.93,15.93,0,0,0-5.17,3.06,14.79,14.79,0,0,0-3.71,5.12,17.08,17.08,0,0,0-1.41,7.14V51.69a17,17,0,0,0,1.41,7.19A15.06,15.06,0,0,0,130.48,64,16,16,0,0,0,135.65,67a16.67,16.67,0,0,0,11.56,0A16,16,0,0,0,152.38,64a15,15,0,0,0,3.71-5.07,17,17,0,0,0,1.41-7.19V16.36a17,17,0,0,0-1.41-7.14A14.75,14.75,0,0,0,152.38,4.1Zm-4.46,47.59c0,2.32-.64,4-1.93,5.13a7.12,7.12,0,0,1-9.12,0c-1.29-1.09-1.93-2.8-1.93-5.13V16.36q0-3.48,1.93-5.12a7.14,7.14,0,0,1,9.12,0q1.92,1.64,1.93,5.12Z"/><path class="cls-1" d="M189.73,51.5c0,2.38-.56,4.13-1.69,5.26a6.13,6.13,0,0,1-8.46,0c-1.13-1.13-1.69-2.88-1.69-5.26V.57H168.3V52.44a15.23,15.23,0,0,0,1.22,6.11,15.72,15.72,0,0,0,8.27,8.27,15.4,15.4,0,0,0,12,0,15.71,15.71,0,0,0,8.27-8.27,15.16,15.16,0,0,0,1.22-6.11V.57h-9.59Z"/><path class="cls-1" d="M213.36,5.36a16.64,16.64,0,0,0-3.06,5.83,24.29,24.29,0,0,0-1,7.14,23.07,23.07,0,0,0,2.11,10.48q2.12,4.18,8.32,6.71l6.86,2.82a22.45,22.45,0,0,1,2.87,1.41,4.89,4.89,0,0,1,1.69,1.69,6.9,6.9,0,0,1,.8,2.72,40.37,40.37,0,0,1,.19,4.32q0,2.26-.19,4.13a8.23,8.23,0,0,1-.89,3.16,4.91,4.91,0,0,1-2.07,2,8.42,8.42,0,0,1-3.81.7q-3.66,0-5.21-2.11a7.83,7.83,0,0,1-1.55-4.75v-3H208.8v3.57a15.74,15.74,0,0,0,4.69,11.32,15.85,15.85,0,0,0,5.17,3.34A17.05,17.05,0,0,0,225.15,68a18.25,18.25,0,0,0,7.8-1.51,13.27,13.27,0,0,0,5.12-4.08,16.53,16.53,0,0,0,2.77-6.21,34.37,34.37,0,0,0,.85-7.84,50.07,50.07,0,0,0-.38-6.53,16.32,16.32,0,0,0-1.45-5.08,11.66,11.66,0,0,0-3.06-3.85,18.4,18.4,0,0,0-5.17-2.87l-7.32-2.91a15.06,15.06,0,0,1-3-1.51,5.44,5.44,0,0,1-1.64-1.74,5.85,5.85,0,0,1-.71-2.35,33.14,33.14,0,0,1-.14-3.34,18.49,18.49,0,0,1,.28-3.24,8.14,8.14,0,0,1,1-2.73,5.57,5.57,0,0,1,2-1.92,6.29,6.29,0,0,1,3.24-.75q3.66,0,5.22,2.39a10.23,10.23,0,0,1,1.55,5.69v2.16h9.59V15.13a14.11,14.11,0,0,0-1.13-5.5,15.48,15.48,0,0,0-3.24-4.84,16.21,16.21,0,0,0-5.07-3.48A15.89,15.89,0,0,0,225.71,0a16.81,16.81,0,0,0-7.23,1.46A14.63,14.63,0,0,0,213.36,5.36Z"/><polygon class="cls-1" points="279.75 57.89 260.77 57.89 260.77 38.25 277.31 38.25 277.31 29.23 260.77 29.23 260.77 9.59 279.75 9.59 279.75 0.57 251.19 0.57 251.19 67.47 279.75 67.47 279.75 57.89"/></g></g></g></g></svg>
