<svg xmlns="http://www.w3.org/2000/svg" viewBox="0 0 250.85 102.71"><defs><style>.cls-1{fill:#FFF;}</style></defs><title>dlso</title><g id="Layer_2" data-name="Layer 2"><g id="Livello_1" data-name="Livello 1"><g id="sponsors"><g id="dlso"><path class="cls-1" d="M23.62,79.09V23.62H45.49c17.38,0,29.44,11.06,29.44,27.78S62.88,79.09,45.49,79.09ZM62.88,51.4c0-9.81-6-17.38-17.38-17.38H35.43V68.7H45.49C56.47,68.7,62.88,60.8,62.88,51.4Z"/><path class="cls-1" d="M119.28,71.28l6.4-9a24.32,24.32,0,0,0,17.63,7.48c6.49,0,9.65-3,9.65-6.15,0-9.81-31.94-3.08-31.94-24,0-9.23,8-16.88,21-16.88,8.82,0,16.13,2.66,21.62,7.73l-6.57,8.65A23.83,23.83,0,0,0,141,33.1c-5.07,0-7.9,2.25-7.9,5.57,0,8.82,31.85,2.91,31.85,23.62,0,10.15-7.24,17.8-22.21,17.8C132.09,80.09,124.44,76.52,119.28,71.28Z"/><path class="cls-1" d="M170.26,51.4c0-16.72,12.23-28.69,28.94-28.69s29,12,29,28.69S216,80.09,199.2,80.09,170.26,68.12,170.26,51.4Zm45.83,0c0-10.4-6.65-18.21-16.88-18.21S182.4,41,182.4,51.4,189,69.61,199.2,69.61,216.09,61.71,216.09,51.4Z"/><polygon class="cls-1" points="103.66 23.62 91.43 23.62 78.04 73.58 112.1 82.71 114.79 72.67 92.14 66.6 103.66 23.62"/><path class="cls-1" d="M0,0H0V102.71H250.85V0ZM239,90.9H11.81V11.81H239Z"/></g></g></g></g></svg>
