<svg xmlns="http://www.w3.org/2000/svg" viewBox="0 0 1521.6 569.59"><defs><style>.cls-1{fill:#FFF;}</style></defs><title>logo</title><g id="Layer_2" data-name="Layer 2"><g id="Livello_1" data-name="Livello 1"><g id="logo"><g id="r"><path class="cls-1" d="M1488.11,324.54c18.65,0,33.49,15.64,33.49,33.93A33.8,33.8,0,1,1,1488,324.54Zm-.27,6.8c-14.93,0-26.51,12.29-26.51,27.13,0,15,12,27.13,26.51,27.13s26.42-11.93,26.42-27.13c0-14.58-11.4-27.13-26.33-27.13Zm1.29,10.71c6.19,0,11.77,2.57,11.77,9.05,0,2.64-.91,5.81-5.2,7.77,2.34,1,4.3,2.57,4.6,7.47.38,5.58.38,6.19,1,7.84h-7.77c-.6-1.13-.9-6.64-1.05-7.69-.23-1.81-.68-4.68-5.73-4.68h-3.16v12.37h-8V342.05Zm-5.58,5.51v9.05h3.85c1.66,0,5.5,0,5.5-4.91,0-4.07-3.39-4.15-5.05-4.15Z"/></g><path id="S" class="cls-1" d="M1361.1,567.61c-53.79,7.66-88.06-24.73-95.79-74.26-1.88-12-3.85-18.26,14.16-21,3.89-2.13,5.92-1.45,13.33-1.51,21.38-.19,25,3.28,30.64,26,.13,9,17.55,17.78,30.19,15.22,26.7-4,18.82-21.24,6.28-29.69-7.75-4-13.75-9-18.45-11.36-10.42-5-21.72-8.16-31.95-13.56-38.16-20.27-52-66.79-25-102.63,29.25-38.79,90.45-40.49,126.29-9.6,30,25.8,15,74.26-28.12,62.89-15.5-4.08-31.74-24.21-40.83-16-17.3,15.57,12.4,24.38,24.7,29.34,4,1.63,8.16,3,12.11,4.71,20.65,9,42.18,24.54,50,46.76C1444,516.45,1402.4,561.77,1361.1,567.61Z"/><path id="E" class="cls-1" d="M1200.35,468.24c8.35.93,10.43-4.4,10.29-12.15q-.24-14-.48-28.05c-.14-8.14-7.58-13.41-16.19-12.95-17.83,1-23.32-.26-46,1.27a9.63,9.63,0,0,0-1.46-.24l-.3,0-1.49-24.91c.59-.08,1.16-.2,1.76-.22,11.49-.5,16.14-1.65,34.71-1.45.46,0,.86-.33,1.3-.47q7.15-.56,14.29-1.2c8-.71,16.27-6.62,15.69-15.69l-1.79-28.08c-.56-8.76-6.75-15.29-15.69-15.69-35.09-1.57-68.58.78-108.88.67-10.34,0-12.86,12.24-10.24,20-2.8,13.55-.2,31.4-.12,43,.15,23.64.41,47.29.62,70.93.19,21.54.6,62.53,2.82,83.92,1.37,13.29,54.3,9.85,81.33,9,12.22-.37,38.16,4.39,47.3-5.31,3.37-3.58-.06-21.8.94-33.43.6-7,2.52-12.72-3.06-14.94-5.16-3.22-27.2-1.33-39.86-1.59a75.23,75.23,0,0,1-14.53.2l-1.92-32.13,1.66-.45C1165.65,469,1185.67,466.61,1200.35,468.24Z"/><path id="I" class="cls-1" d="M1000.74,409c-.26-9.78-.77-23.49-.38-37,1.69-9.49,2.2-18.57.58-26.47-1.11-5.41-.63-11-4.06-14.1-5.38-9.78-28.54-8.38-43.71-8.35-5.06,0-11.43,0-14,3-5,4.82-5.46,7.43-6.32,16.25-.22,2.29.36,4.57.56,6.86a18.08,18.08,0,0,0-.59,3.62c-2.33,37.65-3.91,75.33-4.46,113.06-.27,18.79,1,47,3.52,91.08.83,11.85,67,11.78,67.56-3.14.4-10,1.94-39.48,1.51-55.39C1000.21,468.62,1001.53,438.82,1000.74,409Z"/><path id="T" class="cls-1" d="M879.42,346c.18-8.29-1.36-15.12-11.7-16.87-6.63-1.12-13.25-2.06-19.86-2.89a139.33,139.33,0,0,0-29.12-2.74,420.71,420.71,0,0,0-52.93.12,20.64,20.64,0,0,0-5.16-.61c-20.17.31-55.33-4.28-55,18.63.26,18.06-4.47,44.42,11.12,44.85,12.52.35,43.43-4.14,44.51,9.61,1.38,17.57,1.08,48.31.63,62-1,30.77-2.19,50.34.11,98.88.26,5.47,3.29,10.38,9.46,10.79,54.87,3.64,54.67,3.51,52.8-41.13-1-23.16,3.42-39.71,1.38-62.75-1.07-12.07-.93-55.31-2.08-70.91h0c-.09-5.67,15.44-2.84,30.79-2.84,13.15-.53,16,2.53,22.73-4.1,6.31-6.22,3-19.82,2.39-33.72C879.76,351.26,879.4,347.12,879.42,346Z"/><path id="R-2" data-name="R" class="cls-1" d="M626.71,473.51c20.85-12.79,28.12-33.2,28.52-59.85.48-31.46-7.65-60.32-38.69-73.32-36.39-15.25-83.61-12.76-121.81-8.51-8.64,1-15.1,7.36-15,16.34.65,65.14,1.29,100.52,5.18,165.54-1.1,4.61,1.53,38.76,4,42.27,3.61,6.35,11.38,8.61,18,7,10.7.16,26.24-.58,36.95-.42,8.45.12,10.57-7.35,10.17-15.46l-2.36-48.3c5.33-1.37,10.94-2.18,15.32-.43,4.59,1.83,13.2,13.52,16.38,17.19,9.07,10.49,13.88,36.18,25.72,43.29,8.06,4.84,40,4.49,57.88.47,19.26-4.33-1.58-28.14-11.77-48.47C647.51,495.4,637.63,484.7,626.71,473.51Zm-36.56-39.23c-11,11.09-25.56,14.42-40.8,16.28l-3.12-63.82c4.25-.5,8.51-1,12.8-1.16C584.57,384.36,618.25,405.81,590.14,434.28Z"/><path id="A:2" class="cls-1" d="M434.82,548.44c-19.58-48-27.78-98.08-47.3-146.13-7.6-18.57-13.68-46.21-26.17-62-9.67-12.2-17.76-11.09-33.39-10.11-10.73.67-29.93-1.48-35.38,7.23-10.63,17-21.22,46.77-28.21,64.65-20.6,52.72-28.3,93.51-48.89,139.84-2.07,4.6-3.08,11.75-1.45,15.55,1.82,6.07,5.35,8,16,8.11,54.8.77,47.2,7.64,53.47-12.43,1.83-5.84,5.28-25,9.91-35.92,1.61-7.15,17.87-8.45,34-8.47,17.92,0,36.44-1.64,37.41,19.43.56,2.64,2.61,16.32,3,17,3.16,28,5.78,25.66,51.88,22.58C428.69,567.21,438.9,558.56,434.82,548.44ZM347,469.21c2.06,5.31-41.3,6.78-39.73,2.65-.13-5.09,1.84-9.49,4.33-19.79,1-4.23,4.61-13,5.24-18.76,5.52-32.4,12.24-23.37,15.35-14.74,3,10,5.29,19.87,8.87,29.55,1.38,3.8,1.93,9.79,3.44,13.52C344.4,461.64,347,469.21,347,469.21Z"/><path id="P" class="cls-1" d="M157.38,333.42c-22.91-9.23-49.21-8-73.44-8.6-17.39-.44-56.88-3.63-58,9.91-.57,6.9-.06,28.13,0,39q.19,27.59.38,55.17.47,58.28.88,116.5c.06,7.16-.49,13.63,4.59,15.77,2.51,1.82,10.09,1.05,13.67,1.12q19,.56,38.1,1c8,.19,10.76-8.6,10.19-16.95-1.13-15-2-51.36,2.66-57.19s33-.14,50.21-5.32c21.72-6.53,36.68-11.12,47.42-31.58C214.87,412.38,200.63,350.93,157.38,333.42ZM127.81,433.79c-8.35,2.39-19.84,3.83-24,3.33-11-1.26-15.13-.36-17.07-7.21-.06-6-.25-16.39-.13-17.71.94-9.29-1.46-22.77,3.56-29.36,16.32-12,52.36-5.27,56.69,19.58.44,2.51.72,9.91.11,13.07C144.11,424.84,136.85,428.89,127.81,433.79Z"/><path id="O" class="cls-1" d="M1450.73,89.81C1429,20.37,1311.56-2.29,1258.93,50.87c-3.33,1-8.51,7.27-10.64,11.23-26.2,48.63-31.16,122.14,18.52,158.66,49.36,36.28,109.52,39.63,153.44,1.34C1452.13,194.3,1468.83,130.63,1450.73,89.81Zm-120,99.4c-20.25-5-37.23-16.31-40.18-40.84-4.11-34.23,18.36-69.82,53.5-72.39,33.92-2.48,59.75,24.74,54,59C1391.78,172.43,1369.16,195.73,1330.77,189.22Z"/><path id="H" class="cls-1" d="M1191,31.84c0-8.72-7.11-15-15.46-15.46-10.78-.64-26.6-.46-38.29-2-11.13,1.52-11.76,5.68-10.57,17.05,2.55,24.47,3.9,72.35-1,74.11-13.81,5.84-67.42,9.93-65-4.51l-1.91-70c-.22-8.14-6.9-15.75-15.46-15.46l-23.71.81a16,16,0,0,0-4.93,1c-13.64,3.66-18.36,3.45-18.24,14.68q1,97.69-1.85,195.34c-.26,9,7.34,14.62,15.46,15.46a285.25,285.25,0,0,0,38.68,1.39c8.18-.26,15.69-6.87,15.46-15.46l-1.45-53c-1.15-16.39,31.52-13.05,54.08-11.38,4.35.32,12.67-.56,11.11,14.5q.17,25.86-.54,51.75c-.22,8,1.21,14.77,9.4,14.29,14.47-.85,48.76,4.48,51.7-3.18,3.41-8.9,3.33-37.86,2.67-51.31C1188.58,137.87,1191,84.57,1191,31.84Z"/><path id="D" class="cls-1" d="M791.84,22.13C768,18.3,728.05,9.31,706.24,24.19c-20.31,13.86-12.66,56.58-12.32,77.39.7,42.42,2.81,82.73.38,125.08-.39,6.74,2.95,11.13,7.52,13.29a16.43,16.43,0,0,0,3.82,1.61c30.86,8.43,63.61,6,95.27,2.85,25.86-2.55,51.36-9.7,68.16-30.81,31.45-39.53,35-114.82-4.9-156.34C843.44,35.7,820.22,26.7,791.84,22.13ZM804.07,178c-18.57,7.76-45.45,15.68-45.61-9.83-.18-29.84-2.43-47.39-.78-68.66,2.85-36.84,65.29-5.06,71.22,18.8,3.38,13.62,1.55,25.79-3.94,38.33C820,167.9,813.06,173.6,804.07,178Z"/><path id="N" class="cls-1" d="M511.94,160.15c.06-.24.16-.45.2-.69,1.5-8.51-7.65-27.83,7.48-18.55,10.95,21.39,24.23,42.13,37.3,62.24,8.68,13.36,18.41,34.35,34.22,41,9.54,4,33,5.21,42.45-1.09,11.62-7.8,13.44-20.48,12.58-32.4-3.87-53.66,4.11-106.14-1.46-159.75-3.09-29.77-14.42-43.4-57.08-33.86-5.18,1.16-7.82,8-7.66,13.35l2.14,72c.08,2.68.47,5.88.87,9.22-1.79,8,1.11,22.92-11.65,16l-1.05-1.29a290.54,290.54,0,0,1-37.71-59.09c-6.76-14.22-12.68-28.62-25-39.07-10-8.5-23.73-12.93-35.59-9.8-9.41.71-18,2.14-23.41,11.31-8.58,14.42-2.79,46.11-3.21,62.53l-2.31,90.64c-.41,16-4.24,51.26,4.17,57.14,13.67,9.55,51.84,10.59,63.94.21,7.79-6.69,2.27-47.33,1.48-64.48Z"/><path id="A:1" class="cls-1" d="M405.64,230.31c-21.32-47.62-33.74-97.58-55-145.2-8.27-18.4-15.44-46-28.41-61.37-10-11.89-18-10.44-33.3-8.8-10.54,1.13-23.69,1.68-31.71,9.57-14.26,14-20.82,47.54-27.8,65.54-18.29,47.56-28.17,95.48-46.45,143a15.94,15.94,0,0,0,.42,12.92c2.05,6,4.42,10.62,14.92,10.32,54-1.51,51.08,5.69,56.4-14.8,1.55-6,6.71-28.2,8.22-36.62,1.27-7.27,17.23-9.26,33.09-10,17.64-.77,35.79-3.17,37.65,18,.67,2.63,3.26,16.34,3.66,17,4.31,28.13,9,25.49,54.24,20.46C400.41,249.48,410.09,240.33,405.64,230.31Zm-92.05-76.07c2.25,5.26-40.36,8.56-39,4.32-.34-5.12,1.4-9.64,3.42-20.13a144.54,144.54,0,0,0,2.29-16.77c4-32.89,11.05-24.06,14.48-15.5,3.33,9.95,7.21,19.81,11.15,29.42,1.52,3.77,3.22,7.41,4.86,11.12C310.73,146.71,313.58,154.24,313.58,154.24Z"/><path id="L" class="cls-1" d="M35.15,0c6.36.67,12.36,1.55,17.34,2,6.79.65,11.69,8,12.25,14.2S65.8,28.71,66.24,35c.46,1.4.22,15.38.32,16.76,2.07,30.41-.13,31.93,1.77,54.36,1.1,12.14-5.51,67.35,3.73,79,17,2,47.27-6.14,65-2.31,5,1.07,12.05,6.92,13.35,12a87,87,0,0,1,.62,43.53c-3,12.79-42.71,10.89-59.16,12.31-26.62,2.4-43.81,5.47-70-1-12.38-3-14.38-16.87-16.25-29.4-3.08-20.5-3.95-35.92-2.17-57.9C1.07,123.57.73,84.81,2,46V45.9C.09,31.64-3.63,13.9,9.3,4.33,9.3,4.33,18.77,0,35.15,0Z"/></g></g></g></svg>
