<svg xmlns="http://www.w3.org/2000/svg" viewBox="0 0 362.31 86.51"><defs><style>.cls-1{fill:#FFF;}</style></defs><title>r-dsnt</title><g id="Layer_2" data-name="Layer 2"><g id="Livello_1" data-name="Livello 1"><g id="sponsors"><g id="r-dsnt"><path class="cls-1" d="M0,42.28l4.37-.41V17.14L0,16.75V1.21H39.22c11.07,0,18,7.58,18,16.18S53.4,30,46.39,32.78l3.28,3.27L59.79,57.82l-23.12.55L26.86,36.74l.06,21.08H0ZM26.46,24.33h3.28c3.24,0,5.42-1.28,5.42-5,0-3-1.34-4.86-4.86-4.86H26.46Z"/><path class="cls-1" d="M116.81,42.28l4.39-.41V17.14l-4.39-.39V1.21h33.51c13.32,0,26.3,5.4,26.3,28.77,0,22.42-13.38,27.84-27.6,27.84H116.81Zm29-24.65h-2.64v23h2.64c5.56,0,8.76-3.11,8.76-12C154.54,20.58,151.33,17.63,145.78,17.63Z"/><path class="cls-1" d="M226.48,26c6.06,3.9,7.44,9.07,7.44,14,0,10.85-8.33,19-27,19-8.6,0-18.57-1.62-25.5-4.48L183,35.89a41.31,41.31,0,0,0,20.49,6.23c4.37,0,5.5-1.69,5.5-3.43-22.22-1.83-27.51-9.33-27.51-19.68,0-11.66,8.39-19,26.3-19a58.52,58.52,0,0,1,24.42,4.94l-.47,19.15c-4.56-4-13.42-7.11-20.18-7.11-4.37,0-5.59,1.53-5.59,3.36C216.1,21.16,222.4,23.36,226.48,26Z"/><path class="cls-1" d="M304.82,1.21V16.75l-4.37.39V57.82l-20.34.55L265.66,38.05l.27,19.76H239V42.28l4.37-.41V17.14L239,16.75V1.21h24.28l14.84,21.13-.25-21.13Z"/><path class="cls-1" d="M309.59,1.21h52.72V21.16c-4.23-1.69-10.12-3.54-15.05-3.54V41.87l4.39.41V57.82H320.3V42.28l4.41-.41V17.63c-5,0-10.86,1.85-15.11,3.54Z"/><path class="cls-1" d="M107.33,24.32l-.68,0a11.71,11.71,0,0,0-7.29,2.51,3.47,3.47,0,0,1-2.43,1,3.54,3.54,0,0,1-2.48-.91,11.51,11.51,0,0,0-7.33-2.43A11.64,11.64,0,0,0,79.79,27a3.42,3.42,0,0,1-2.44.93A3.36,3.36,0,0,1,74.86,27a11.72,11.72,0,0,0-7.33-2.42l-.14,0v8.08h.2a11.51,11.51,0,0,1,7.35,2.43,3.44,3.44,0,0,0,2.46.9,3.4,3.4,0,0,0,2.44-.94,11.77,11.77,0,0,1,7.29-2.54A11.59,11.59,0,0,1,94.5,35a3.46,3.46,0,0,0,2.46.92,3.41,3.41,0,0,0,2.46-1,11.68,11.68,0,0,1,7.33-2.53l.57,0Z"/><g id="slogan"><path class="cls-1" d="M17.8,76h0a4.14,4.14,0,0,1,3.11-1.53,2.93,2.93,0,0,1,1.25.3l-.82,3a2.09,2.09,0,0,0-1.28-.41c-2.26,0-2.78,2-3.05,3.71l-.79,5.1H13L14.8,74.9H18Z"/><path class="cls-1" d="M40.12,86.18H37l.16-1H37a4.45,4.45,0,0,1-3.24,1.38c-3.3,0-4.69-3-4.2-6s2.81-6,6-6A3.37,3.37,0,0,1,38.51,76l.19-1.06h3.19Zm-1.93-5.64c.19-1.5-.57-3.16-2.21-3.16S33,79,32.82,80.54s.46,3.15,2.13,3.15A3.66,3.66,0,0,0,38.18,80.54Z"/><path class="cls-1" d="M58,85.09h0a4.33,4.33,0,0,1-3.22,1.42c-3.35,0-4.8-3-4.25-6s2.83-6,6.08-6a3.29,3.29,0,0,1,2.83,1.42h0L61,66.73h3.19L61.07,86.18H57.91Zm1-4.55c.3-1.5-.44-3.16-2.1-3.16S54,79,53.82,80.54s.46,3.15,2.12,3.15S58.86,82,59.08,80.54Z"/><path class="cls-1" d="M74.78,86.18H71.56l1.8-11.28h3.19Zm2.83-16a2.29,2.29,0,0,1-2.18,1.88,1.62,1.62,0,0,1-1.66-1.88,2.46,2.46,0,0,1,2.29-1.91A1.57,1.57,0,0,1,77.61,70.19Z"/><path class="cls-1" d="M97.18,80.54a6.87,6.87,0,0,1-6.84,6c-3.54,0-5.53-2.48-5-6a6.9,6.9,0,0,1,6.87-6C95.76,74.52,97.72,77,97.18,80.54Zm-8.56,0c-.25,1.5.55,3.15,2.15,3.15S93.69,82,94,80.54s-.52-3.16-2.18-3.16S88.89,79,88.62,80.54Z"/><path class="cls-1" d="M128.13,85.09h-.06a4.34,4.34,0,0,1-3.24,1.42c-3.32,0-4.69-3-4.25-6s2.86-6,6.08-6a3.46,3.46,0,0,1,2.89,1.42h.05L131,66.73h3.22l-3.08,19.45H128Zm1-4.55c.3-1.5-.46-3.16-2.15-3.16s-2.92,1.66-3.13,3.16.52,3.15,2.18,3.15S128.95,82,129.14,80.54Z"/><path class="cls-1" d="M153.42,80.54a6.89,6.89,0,0,1-6.89,6c-3.49,0-5.45-2.48-4.88-6a6.87,6.87,0,0,1,6.84-6C151.94,74.52,154,77,153.42,80.54Zm-8.58,0c-.22,1.5.52,3.15,2.15,3.15s2.92-1.65,3.16-3.15-.46-3.16-2.13-3.16S145.1,79,144.83,80.54Z"/><path class="cls-1" d="M165.46,81c-.22,1.44.08,3,1.72,3a2.91,2.91,0,0,0,2.48-1.55l2.89.49a6.31,6.31,0,0,1-5.72,3.49c-3.46,0-5.21-2.45-4.69-5.89s2.81-6.1,6.48-6.1,4.91,2.75,4.33,6.1l-.05.42Zm4.71-2c0-1.15-.52-2.25-1.77-2.25A2.8,2.8,0,0,0,165.89,79Z"/><path class="cls-1" d="M188.73,77.54a2.13,2.13,0,0,0-1.55-.75,1.25,1.25,0,0,0-1.2.94c-.16.85,1,1.06,2,1.57a2.7,2.7,0,0,1,1.8,3.23,4.88,4.88,0,0,1-5,4,4.28,4.28,0,0,1-3.62-1.87l1.77-1.91a2.88,2.88,0,0,0,2.18,1.32,1.38,1.38,0,0,0,1.45-1.25c.22-1-.93-1.19-2-1.66s-2-1.17-1.77-3A4.18,4.18,0,0,1,187,74.52a5,5,0,0,1,3.41,1.19Z"/><path class="cls-1" d="M203.85,75.94h.08A4,4,0,0,1,207,74.52c3.05,0,3.6,2.15,3.19,4.74l-1.12,6.92h-3.19l.9-6c.27-1.34.63-3.08-1.2-3.08s-2.23,2.14-2.48,3.5l-1,5.57H199L200.8,74.9H204Z"/><path class="cls-1" d="M227.18,68.77l-4.39,6.87-2.07-.23,3.6-7Z"/><path class="cls-1" d="M237.37,86.18h-3.11l1.28-8.56h-1.15l.46-2.72H236l.57-3.81h3.24l-.63,3.81h2l-.46,2.72h-2Z"/><path class="cls-1" d="M266.19,81c-.22,1.44.05,3,1.74,3a3,3,0,0,0,2.4-1.55l2.86.49a6.22,6.22,0,0,1-5.69,3.49c-3.49,0-5.21-2.45-4.66-5.89s2.81-6.1,6.43-6.1,4.93,2.75,4.36,6.1l0,.42Zm4.66-2c0-1.15-.52-2.25-1.74-2.25A2.83,2.83,0,0,0,266.58,79Z"/><path class="cls-1" d="M283.44,74.9h3.9L289,77.82l2.23-2.92h3.87l-4.8,5.15,3.81,6.13h-4l-2.26-3.92-3.16,3.92h-4l5.75-6.13Z"/><path class="cls-1" d="M306.3,86.18H303l1.8-11.28H308Zm2.78-16a2.25,2.25,0,0,1-2.18,1.88,1.56,1.56,0,0,1-1.61-1.88,2.38,2.38,0,0,1,2.23-1.91A1.56,1.56,0,0,1,309.08,70.19Z"/><path class="cls-1" d="M323.88,77.54a2.23,2.23,0,0,0-1.55-.75,1.21,1.21,0,0,0-1.23.94c-.19.85,1,1.06,2.07,1.57a2.71,2.71,0,0,1,1.77,3.23,4.89,4.89,0,0,1-5,4,4.28,4.28,0,0,1-3.62-1.87L318,82.74a3,3,0,0,0,2.26,1.32,1.57,1.57,0,0,0,1.47-1.25c.11-1-1-1.19-2-1.66s-2-1.17-1.8-3a4.18,4.18,0,0,1,4.17-3.66,5.09,5.09,0,0,1,3.43,1.19Z"/><path class="cls-1" d="M337.75,86.18h-3.19l1.34-8.56H334.8l.44-2.72h1.06l.65-3.81h3.19l-.6,3.81h2L341,77.63h-1.93Z"/></g></g></g></g></g></svg>
