<svg xmlns="http://www.w3.org/2000/svg" viewBox="0 0 266.71 106.99"><defs><style>.cls-1{fill:#FFF;}</style></defs><title>wollof</title><g id="Layer_2" data-name="Layer 2"><g id="Livello_1" data-name="Livello 1"><g id="sponsors"><g id="wollof"><path class="cls-1" d="M254.62,82.56a12.12,12.12,0,1,1-12.25,12.06,12.11,12.11,0,0,1,12.25-12.06ZM254.51,85a9.7,9.7,0,1,0,9.39,9.75A9.55,9.55,0,0,0,254.51,85Z"/><path class="cls-1" d="M259.08,91.09c-.6-3.47-5.65-3.37-8.1-2.27a1.31,1.31,0,0,0-.6,1.44c.45,3,0,6.43-.06,9.49a1.28,1.28,0,0,0,2.56,0c0-1.36.1-2.76.16-4.16a3.59,3.59,0,0,1,2.67.75c.9.93.55,2.41.39,3.65-.21,1.63,2.36,1.63,2.56,0,.24-1.88.47-4.06-1-5.52A3.11,3.11,0,0,0,259.08,91.09Zm-2.89,1.26c-.65.84-2,.77-3.1.7,0-.73,0-1.46-.09-2.19C254.53,90.66,257.39,90.81,256.19,92.35Z"/><path class="cls-1" d="M52.66,7.29c-.2.27-.38.56-.56.84l.19-.55c.12-.35-.39-.54-.58-.24-.54.86-1,1.73-1.5,2.62.18-.56.36-1.12.57-1.68.13-.34-.4-.54-.58-.24-.4.68-.78,1.37-1.16,2.06q.63-2.17,1.29-4.33a.32.32,0,0,0-.58-.24q-1.13,2-2.17,4l.78-2.78a.32.32,0,0,0-.58-.24c-.53.85-1,1.72-1.47,2.61l0-.92q.28-1,.58-2a.32.32,0,0,0-.58-.24q-.75,1.39-1.45,2.81c.31-1.32.64-2.63,1-3.94.12-.4-.46-.53-.61-.17-.29.71-.61,1.41-.93,2.11a1.87,1.87,0,0,0-.14-.24c.25-.91.49-1.82.77-2.73a.32.32,0,0,0-.58-.24L43.2,5.77a1.5,1.5,0,0,0-.32-.06l.53-1.88a.32.32,0,0,0-.58-.24,22.6,22.6,0,0,0-1.22,2.14,25,25,0,0,1,.88-2.61c.15-.36-.38-.5-.58-.24A14.39,14.39,0,0,0,39.74,7.7c-.07.2-.13.42-.19.63-2,7.05-2.58,14.32-3,21.6a68.05,68.05,0,0,0,2,19.2,69.26,69.26,0,0,1,.71,19.38l-.06.29a37,37,0,0,0-2.28-3.85l-.53-.86c-.5-1-1-2-1.59-3q-4-7.28-8.05-14.53a1.06,1.06,0,0,0-1.5-.42c-.38-.32-.64-.22-.63.59v.1a1.15,1.15,0,0,0,0,.89c.25,7.43-.38,16-3.85,22C13.67,49.57,12,29.47,21.43,9.32l.2-.55,2.12-3.44C24,5,23.44,4.69,23.21,5c-.45.64-.88,1.29-1.32,1.94.37-.78.74-1.56,1.09-2.35a.32.32,0,0,0-.55-.32c-.6.95-1.22,1.89-1.86,2.81q.22-.77.41-1.54l.34-.71a.31.31,0,0,0,0-.28l.34-.71a.34.34,0,0,0-.24-.47.3.3,0,0,0-.52,0c-.41.78-.84,1.56-1.28,2.32.23-.91.49-1.81.77-2.71.11-.34-.42-.57-.58-.24h0a.29.29,0,0,0-.24.15L18.7,4.39,17.06,6.73,16.81,7l1.84-4.42c.13-.31-.32-.5-.53-.31a24.76,24.76,0,0,0-2.45,2.59,31,31,0,0,1,1.57-2.93c.18-.3-.26-.66-.5-.38q-1.49,1.78-2.82,3.67A35.32,35.32,0,0,1,15.58,1c.14-.3-.26-.68-.5-.38a35.88,35.88,0,0,1-2.43,2.79l1.07-2a.32.32,0,0,0-.55-.32Q12.6,1.92,12,2.71c.32-.75.65-1.49,1-2.23.15-.3-.25-.67-.5-.38l-.13.15a.24.24,0,0,0-.22.1L11.1,1.71l0-.06C8.29,5.28,8.19,4.89,6.23,9.81c0,.08-.1.16-.15.25-.26.53-.5,1.06-.73,1.6A48.34,48.34,0,0,0,.61,28.8a86.17,86.17,0,0,0,.8,26c3.52,17.61,12.95,33.37,16.53,51a1.07,1.07,0,0,0,.2.66h0a1.37,1.37,0,0,0,.21.24l0,0a1.27,1.27,0,0,0,1.29.23,1.24,1.24,0,0,0,1.13-1,15.44,15.44,0,0,0,2.94-4.7,6.1,6.1,0,0,0,.45-.78,15.23,15.23,0,0,0,1.66-4.28c1.33-5.41,2.51-10.86,3.72-16.29.37-1.67.64-3.37,1-5.16A90,90,0,0,1,40.88,104c.18,1.1,1.73,1,2.21.22a52.54,52.54,0,0,0,5.55-12.78c3-9,3.41-18.46,3.26-27.83-.12-7.3-1.81-14.56-2.3-21.87a135.73,135.73,0,0,1-.11-19.85c.34-4.25,2.18-8.38,3.44-12.89l-.23.18a16.52,16.52,0,0,0,.53-1.69A.32.32,0,0,0,52.66,7.29ZM13.18,3.82h0l.1-.11ZM11.37,2.55h0ZM48.79,8.71l-.13.12.21-.4Z"/><path class="cls-1" d="M137,93.16h-1.26l.59-.1c.36-.07.26-.61-.08-.62q-2.43-.07-4.84-.36l0-.06a44.94,44.94,0,0,1,4.86-.53.32.32,0,0,0,.16-.59,7.14,7.14,0,0,0-4.27-.82,12,12,0,0,0,3.64-.7c.3-.12.3-.64-.08-.62h-.35l.69-.09a.32.32,0,0,0,0-.61c-1.11-.15-2.21-.28-3.32-.39,1-.15,2.06-.34,3.09-.56.29-.06.31-.56,0-.61-.67-.1-1.34-.17-2-.21l1.58-.47a.32.32,0,0,0-.08-.62c-1.29-.15-2.58-.28-3.87-.41v0c1-.11,2-.11,2.95-.18a.32.32,0,0,0,0-.63c-.56-.07-1.11-.12-1.67-.15l.33-.07c.36-.08.26-.6-.08-.62-.9-.06-1.8-.08-2.7-.09h0L119.18,83c0-6.8.62-13.23-.05-19.52s-2.69-12.34-4-18.54c-1-5-2.38-10.07-2.5-15.14-.16-6.53.79-13.09,1.17-19.64a18.63,18.63,0,0,0-.68-3.8l-2.5,4.39-.78-5.48-2.75,3.47-.49-3.36-2.11,3.5-1.3-2.42c-2.38,8.1-3.55,17.43-2.17,25.9,1.31,8,1.64,16.35,4,24.06,3.35,10.94,2,21.53.2,32.28-1,5.82-.25,6.79,5.62,6.88.53,0,1.05,0,1.58,0,8.45-.37,6.73-.76,15.18-1,.27,0,.52,0,.73,0a.3.3,0,0,0,.13,0l.81,0a3.55,3.55,0,0,0,.49,0,26.07,26.07,0,0,0,5.85-.47.26.26,0,0,0,.21-.2,12,12,0,0,0,1.2-.27A.32.32,0,0,0,137,93.16Z"/><path class="cls-1" d="M113.66,5.38c-.32.73-.61,1.46-.9,2.2q.18-1.33.46-2.64c.07-.33-.41-.58-.58-.24-.66,1.37-1.23,2.77-1.76,4.19.13-1.47.3-2.93.53-4.4.05-.33-.39-.58-.58-.24-.29.5-.54,1-.78,1.53l.53-2.46c.07-.33-.41-.58-.58-.24-.77,1.57-1.51,3.16-2.24,4.75.18-1,.39-2,.65-3,.09-.34-.41-.57-.58-.24q-.57,1.13-1.08,2.28a19.64,19.64,0,0,1,1.07-3.5c.14-.34-.4-.54-.58-.24a33.08,33.08,0,0,0-2.12,4.55c.19-.88.41-1.74.67-2.61.12-.4-.46-.53-.61-.17l-.82,2A25.85,25.85,0,0,1,105,4c.09-.34-.41-.57-.58-.24a22.33,22.33,0,0,0-2.05,6c-.08.4.53.57.61.17a22.17,22.17,0,0,1,.71-2.75c-.09.63-.17,1.26-.21,1.91,0,.39.5.38.62.08l.19-.46c-.07.37-.13.74-.18,1.11s.38.58.58.24a24.86,24.86,0,0,0,1.4-3,20.56,20.56,0,0,0-.32,2.25c0,.38.5.39.62.08s.24-.57.36-.86a1.62,1.62,0,0,0,.21.37c-.06.37-.11.75-.15,1.12a.32.32,0,0,0,.59.16l.16-.35a1,1,0,0,0,.86.28c.39.25.76.47,1,.63s.65-.31.32-.55l-.61-.4a3.11,3.11,0,0,0,.72-.88,2.64,2.64,0,0,0,.29,1.72c0,.16,0,.33,0,.49,0,.37.51.4.62.08l.1-.27c.41-.05.72-.49,1-1.06a.31.31,0,0,0,.11.19v.14c0,.37.52.41.62.08l.12-.34,0,2c0,.35.54.44.62.08a59.83,59.83,0,0,0,1-6.45A.32.32,0,0,0,113.66,5.38ZM108,8.93q.71-1.58,1.46-3.15l-.73,3.38a.79.79,0,0,1-.37.07Z"/><path class="cls-1" d="M175.71,93.16h-1.26l.59-.1c.36-.07.26-.61-.08-.62q-2.43-.07-4.84-.36l0-.06A44.94,44.94,0,0,1,175,91.5a.32.32,0,0,0,.16-.59,7.14,7.14,0,0,0-4.27-.82,12,12,0,0,0,3.64-.7c.3-.12.3-.64-.08-.62h-.35l.69-.09a.32.32,0,0,0,0-.61c-1.11-.15-2.21-.28-3.32-.39,1-.15,2.06-.34,3.09-.56.29-.06.31-.56,0-.61-.67-.1-1.34-.17-2-.21l1.58-.47a.32.32,0,0,0-.08-.62c-1.29-.15-2.58-.28-3.87-.41v0c1-.11,2-.11,2.95-.18a.32.32,0,0,0,0-.63c-.56-.07-1.11-.12-1.67-.15l.33-.07c.36-.08.26-.6-.08-.62-.9-.06-1.8-.08-2.7-.09h0L157.89,83c0-6.8.62-13.23-.05-19.52s-2.69-12.34-4-18.54c-1-5-2.38-10.07-2.5-15.14-.16-6.53.79-13.09,1.17-19.64a18.63,18.63,0,0,0-.68-3.8l-2.5,4.39-.78-5.48-2.75,3.47-.49-3.36-2.11,3.5L142,6.45c-2.38,8.1-3.55,17.43-2.17,25.9,1.31,8,1.64,16.35,4,24.06,3.35,10.94,2,21.53.2,32.28-1,5.82-.25,6.79,5.62,6.88.53,0,1.05,0,1.58,0,8.45-.37,6.73-.76,15.18-1,.27,0,.52,0,.73,0a.3.3,0,0,0,.13,0l.81,0a3.55,3.55,0,0,0,.49,0,26.07,26.07,0,0,0,5.85-.47.26.26,0,0,0,.21-.2,12,12,0,0,0,1.2-.27A.32.32,0,0,0,175.71,93.16Z"/><path class="cls-1" d="M152.37,5.38c-.32.73-.61,1.46-.9,2.2q.18-1.33.46-2.64c.07-.33-.41-.58-.58-.24-.66,1.37-1.23,2.77-1.76,4.19.13-1.47.3-2.93.53-4.4.05-.33-.39-.58-.58-.24-.29.5-.54,1-.78,1.53l.53-2.46c.07-.33-.41-.58-.58-.24-.77,1.57-1.51,3.16-2.24,4.75.18-1,.39-2,.65-3,.09-.34-.41-.57-.58-.24q-.57,1.13-1.08,2.28a19.64,19.64,0,0,1,1.07-3.5c.14-.34-.4-.54-.58-.24a33.08,33.08,0,0,0-2.12,4.55c.19-.88.41-1.74.67-2.61.12-.4-.46-.53-.61-.17l-.82,2A25.85,25.85,0,0,1,143.71,4c.09-.34-.41-.57-.58-.24a22.33,22.33,0,0,0-2.05,6c-.08.4.53.57.61.17a22.17,22.17,0,0,1,.71-2.75c-.09.63-.17,1.26-.21,1.91,0,.39.5.38.62.08l.19-.46c-.07.37-.13.74-.18,1.11s.38.58.58.24a24.86,24.86,0,0,0,1.4-3,20.56,20.56,0,0,0-.32,2.25c0,.38.5.39.62.08s.24-.57.36-.86a1.62,1.62,0,0,0,.21.37c-.06.37-.11.75-.15,1.12a.32.32,0,0,0,.59.16l.16-.35a1,1,0,0,0,.86.28c.39.25.76.47,1,.63s.65-.31.32-.55l-.61-.4a3.11,3.11,0,0,0,.72-.88,2.64,2.64,0,0,0,.29,1.72c0,.16,0,.33,0,.49,0,.37.51.4.62.08l.1-.27c.41-.05.72-.49,1-1.06a.31.31,0,0,0,.11.19v.14c0,.37.52.41.62.08l.12-.34,0,2c0,.35.54.44.62.08a59.83,59.83,0,0,0,1-6.45A.32.32,0,0,0,152.37,5.38Zm-5.7,3.54q.71-1.58,1.46-3.15l-.73,3.38a.79.79,0,0,1-.37.07Z"/><path class="cls-1" d="M266.4,4.44c-1.16-.07-2.31-.08-3.46-.05a3.49,3.49,0,0,0-.57-.06C248,4.22,251.55,4.07,237.13,4c-3.71,0-7.41-.07-11.12-.05-3.51,0-6.55,1.24-6.48,4.78.2,10.38.27,20.76.52,31.13a64.62,64.62,0,0,0,.9,8.34c.84,5.39,2.2,10.74,2.62,16.16.27,3.52.37,7,.43,10.58-.41,5.53-1.9,16.88-3,22.33a1.34,1.34,0,0,0,0,.44,11.74,11.74,0,0,0-.66,3.68.32.32,0,0,0,.59.16q.55-1.11,1.07-2.23c-.16,1.14-.3,2.28-.38,3.43a.32.32,0,0,0,.59.16l1.23-2.51c.16-.33.33-.82.55-1.27h.12l-.39,3.42c0,.31.45.43.59.16L226,99.28l.25,0-.59,4.34a.32.32,0,0,0,.61.17c.52-1.36,1-2.87,1.55-4.28l-.13,3.78a.27.27,0,0,0,.14.26.34.34,0,0,0,.55-.12c.33-.81.63-1.76,1-2.71.16-.25.33-.5.48-.75,0,.86.07,1.72,0,2.58h0l-.19,2c0,.37.51.41.62.08l1.37-4.17-.27,3.5c0,.38.5.39.62.08a42.59,42.59,0,0,0,1.49-4.54h0c0,.77-.11,1.55-.2,2.32s-.21,1.8-.28,2.7a.3.3,0,0,0,.49.24.26.26,0,0,0,.25-.23l1.63-8.94a8.57,8.57,0,0,0,.22-1.21l.28-1.53V92.8c.48-2.82.76-5.66.93-6.63s.31-1.91.43-2.86a1.36,1.36,0,0,0,.13-.47c.06-.69.11-1.38.14-2.07q.15-1.65.23-3.3c0-.26,0-.53,0-.79l.05,0q0-.49,0-1c0-.39,0-.79,0-1.18a1.43,1.43,0,0,0,0-.19c0-3.68-.14-7.37-.45-11-.46-5.4-1.18-10.81-1.84-16.22,2.06-.07,4.11-.23,6.16-.42a56.19,56.19,0,0,0,6.12-.39h0c.44,0,.88-.05,1.31-.11l1.2-.09a1.36,1.36,0,0,0,.37-.09c.58,0,1.16,0,1.74-.06a15.57,15.57,0,0,0,3.82-.86c.32-.11.29-.65-.08-.62-1,.07-2.09.1-3.13.11h0c.89-.16,1.78-.34,2.67-.57a.32.32,0,0,0-.08-.62l-3,.1a17.49,17.49,0,0,0,2.65-.85c.3-.13.31-.64-.08-.62l-1.79.09h-.07l-1.83.09,2.86-.52c.35-.06.27-.62-.08-.62-1.14,0-2.72-.07-3.86-.06,0,0,.5.06.53,0l-.44-.09c1-.26,1.9-.56,2.84-.91.31-.11.3-.66-.08-.62l-2.78.27a.55.55,0,0,0-.23,0s-.51.08-.11,0l-.95.09c1.41-.5,2.81-1,4.18-1.66.36-.16.08-.62-.24-.58l-3.28.48-.34-.12,3.29-1.38c.29-.12.31-.67-.08-.62l-3.6.46,3.51-1.19a.32.32,0,0,0-.08-.62,38.46,38.46,0,0,0-5.24.4c-6.41.16-4.61.35-11.14.42-.86,0-1.4.18-1.88-.06a91,91,0,0,1,.25-18c16.76-1.1,11.45-1,23.93-1.54a.41.41,0,0,0,.35,0l3.68-.18h0l.94,0c2-.17,2.11-.48,1.62-.56-.87-.15-1.75-.28-2.63-.39l2.72-.26a.32.32,0,0,0,0-.63l-3.86-.32,3.67-.45a.32.32,0,0,0,0-.63L262.18,12l-.88-.45q1.6-.43,3.2-.89h.05l.86-.25a.32.32,0,0,0-.08-.62l-3.54-.07,4.36-1c.37-.09.25-.59-.08-.62L265,8l-.52-.23c.52,0,1-.06,1.55-.07a.32.32,0,0,0,.08-.62A18.49,18.49,0,0,0,264,6.72l.12-.07,1.48-.2c.31,0,.3-.56,0-.61-.61-.11-1.21-.18-1.82-.23l1.78-.4.89-.14C266.85,5,266.73,4.46,266.4,4.44ZM261.71,14h0Z"/><path class="cls-1" d="M95.54,58c-2.17-8.08-4.22-16-3.74-24.44a82.2,82.2,0,0,0-.17-8.51c-.7-5.85-1.08-11.8-6.1-16.14a14.15,14.15,0,0,0-18.84.29c-7.23,6.6-7.54,15.58-8.09,24C58.1,41,59.86,48.92,60.54,56.77c.27,3.12.47,6.24.69,9.37-.21,6.09-.57,12.18,1.24,18.09C64.4,90.51,69.35,96,75.68,97a15.57,15.57,0,0,0,14.73-2.65,14.23,14.23,0,0,0,3.76-5C98.65,79.16,98.35,68.44,95.54,58ZM69.43,38.25a132.46,132.46,0,0,1,1.49-16,8.77,8.77,0,0,1,2.45-4.44c.75-.86,2.25-1.87,3.39-1.63,2.13.46,3.13,2.93,3.36,4.64a64.23,64.23,0,0,1,.28,12c-.44,8,1.65,15.49,3.49,23.08A125.67,125.67,0,0,1,85,72.59c-.08,3.33-.3,7.29-1.52,10.41a5.15,5.15,0,0,1-3.74,1.9c-2.69.15-4.76-1.72-5.91-4a29.8,29.8,0,0,1-1-5.93c-.66-7.92,0-15.91-2.17-23.77A45.74,45.74,0,0,1,69.43,38.25Z"/><path class="cls-1" d="M212.61,57.77c-2-8.12-3.9-16.1-3.25-24.51a82.2,82.2,0,0,0,0-8.52c-.58-5.86-.66-14-5.58-18.4-5.14-4.63-14-4-19.59.9-7.36,6.46-7.29,16.58-8,25-.66,7.76.94,15.7,1.47,23.57.21,3.12.35,6.25.51,9.38-.33,6.08-.81,12.17.88,18.11,1.8,6.32,6.64,11.89,13,13.08A15.57,15.57,0,0,0,206.76,94a14.23,14.23,0,0,0,3.86-4.9C215.3,79,215.2,68.24,212.61,57.77ZM186.9,37.47a132.46,132.46,0,0,1,1.8-16,8.77,8.77,0,0,1,2.54-4.39c.76-.85,2.29-1.83,3.42-1.56,2.12.51,3.07,3,3.27,4.71a64.23,64.23,0,0,1,0,12c-.6,8,1.34,15.52,3,23.14a125.67,125.67,0,0,1,.77,16.67c-.15,3.32-.44,7.28-1.73,10.38a5.15,5.15,0,0,1-3.77,1.82c-2.69.1-4.73-1.82-5.83-4.09a29.8,29.8,0,0,1-.87-5.95c-.5-7.93.35-15.91-1.7-23.81A45.74,45.74,0,0,1,186.9,37.47Z"/></g></g></g></g></svg>
